<?xml version="1.0" encoding="UTF-8"?>
<svg version="1.1" xmlns="http://www.w3.org/2000/svg" width="512" height="512">
<path d="M0 0 C2.6896958 -0.00543224 5.379348 -0.01241892 8.06903076 -0.02124023 C14.56752329 -0.03887398 21.06582933 -0.03525396 27.56432867 -0.02358967 C32.85354973 -0.01449521 38.14271913 -0.01335707 43.4319458 -0.01768494 C44.18946125 -0.01829787 44.94697669 -0.0189108 45.72744715 -0.01954231 C47.26711386 -0.02082142 48.80678055 -0.02211828 50.34644723 -0.02343267 C64.72836684 -0.03479409 79.11018387 -0.02179489 93.49208665 -0.00023121 C105.78839551 0.01763573 118.08455324 0.01453037 130.38085938 -0.00390625 C144.71709103 -0.0253919 159.05323317 -0.03369587 173.38947868 -0.0214572 C174.92296218 -0.02018322 176.45644568 -0.01892573 177.9899292 -0.01768494 C178.74410964 -0.01706783 179.49829007 -0.01645073 180.27532446 -0.01581493 C185.54809411 -0.01238501 190.82080618 -0.01813896 196.09356689 -0.02760315 C202.53379548 -0.03891058 208.97382951 -0.03560202 215.41403627 -0.01448017 C218.68960948 -0.00408557 221.96479944 -0.00185929 225.24037933 -0.01307678 C261.21425294 -0.12482438 292.91042943 8.92796618 320.7109375 32.51757812 C321.59652344 33.25621094 322.48210937 33.99484375 323.39453125 34.75585938 C348.00020844 56.08077961 364.48173699 89.08890197 366.94108009 121.55579376 C367.30642477 129.63622504 367.25620927 137.719918 367.22851562 145.80664062 C367.23394786 148.49633642 367.24093455 151.18598862 367.24975586 153.87567139 C367.26738961 160.37416392 367.26376958 166.87246995 367.2521053 173.3709693 C367.24301083 178.66019036 367.24187269 183.94935976 367.24620056 189.23858643 C367.24681349 189.99610187 367.24742643 190.75361732 367.24805793 191.53408778 C367.24933704 193.07375448 367.2506339 194.61342118 367.2519483 196.15308785 C367.26330972 210.53500746 367.25031051 224.9168245 367.22874683 239.29872727 C367.21087989 251.59503614 367.21398526 263.89119386 367.23242188 276.1875 C367.25390752 290.52373166 367.2622115 304.85987379 367.24997282 319.19611931 C367.24869884 320.7296028 367.24744136 322.26308631 367.24620056 323.79656982 C367.24558346 324.55075026 367.24496636 325.3049307 367.24433056 326.08196509 C367.24090063 331.35473473 367.24665459 336.6274468 367.25611877 341.90020752 C367.26742621 348.34043611 367.26411765 354.78047013 367.2429958 361.2206769 C367.2326012 364.4962501 367.23037491 367.77144007 367.24159241 371.04701996 C367.35334001 407.02089357 358.30054945 438.71707006 334.7109375 466.51757812 C333.97230469 467.40316406 333.23367188 468.28875 332.47265625 469.20117188 C317.32242203 486.68221136 296.55360425 499.3457553 274.7734375 506.83007812 C274.11980225 507.06025635 273.46616699 507.29043457 272.79272461 507.52758789 C256.03335224 512.97943191 239.18830251 512.95523593 221.76245117 512.92163086 C219.07320562 512.92734305 216.38398476 512.93421183 213.69474792 512.94242859 C207.18585082 512.95950681 200.6770507 512.96047959 194.16813704 512.95521569 C188.87026844 512.95115191 183.5724282 512.95264353 178.27456093 512.95796394 C177.13767805 512.95908658 177.13767805 512.95908658 175.97782785 512.96023189 C174.43743655 512.96176358 172.89704525 512.96330193 171.35665397 512.96484686 C156.9547393 512.97853232 142.55287917 512.97316226 128.15096579 512.96166164 C115.01905533 512.95173462 101.88728588 512.9646678 88.75539716 512.98859584 C75.22171928 513.01306728 61.68810685 513.02257496 48.15440732 513.01594311 C40.57623111 513.01246853 32.99816319 513.01456532 25.42000389 513.03219414 C18.96873277 513.04701735 12.51764621 513.04742116 6.06637832 513.03012323 C2.78474319 513.02169277 -0.49650109 513.02148982 -3.77812958 513.03477478 C-39.7698905 513.16924732 -71.47458692 504.11904195 -99.2890625 480.51757812 C-100.61744141 479.40962891 -100.61744141 479.40962891 -101.97265625 478.27929688 C-119.45369574 463.12906265 -132.11723967 442.36024487 -139.6015625 420.58007812 C-139.94682983 419.59962524 -139.94682983 419.59962524 -140.29907227 418.59936523 C-145.75091629 401.83999287 -145.72672031 384.99494313 -145.69311523 367.5690918 C-145.69882743 364.87984624 -145.7056962 362.19062538 -145.71391296 359.50138855 C-145.73099118 352.99249144 -145.73196397 346.48369133 -145.72670006 339.97477766 C-145.72263629 334.67690906 -145.7241279 329.37906883 -145.72944832 324.08120155 C-145.73019674 323.32327964 -145.73094516 322.56535772 -145.73171626 321.78446848 C-145.73324796 320.24407717 -145.73478631 318.70368588 -145.73633123 317.16329459 C-145.75001669 302.76137993 -145.74464664 288.35951979 -145.73314602 273.95760641 C-145.72321899 260.82569595 -145.73615218 247.69392651 -145.76008021 234.56203779 C-145.78455165 221.02835991 -145.79405933 207.49474748 -145.78742748 193.96104795 C-145.78395291 186.38287174 -145.78604969 178.80480381 -145.80367851 171.22664452 C-145.81850172 164.7753734 -145.81890554 158.32428683 -145.8016076 151.87301894 C-145.79317715 148.59138382 -145.79297419 145.31013954 -145.80625916 142.02851105 C-145.94073169 106.03675013 -136.89052632 74.33205371 -113.2890625 46.51757812 C-112.55042969 45.63199219 -111.81179687 44.74640625 -111.05078125 43.83398438 C-82.48530278 10.87381691 -42.05423918 -0.1440182 0 0 Z " fill="#6559A2" transform="translate(145.2890625,-0.517578125)"/>
<path d="M0 0 C3.15584342 2.93988062 5.39424081 5.98078519 7.6875 9.625 C16.32033428 22.73294323 28.05252453 32.90133477 39.84375 43.09375 C42.77240413 45.68285002 45.63396673 48.34196234 48.5 51 C52.58568731 54.78884157 56.70393369 58.52171947 60.91796875 62.16796875 C64.13491793 64.99864261 67.2797068 67.90767016 70.43334961 70.80834961 C75.25602903 75.24236039 80.12269727 79.62616078 85 84 C90.40293305 88.84521093 95.78363904 93.71208598 101.125 98.625 C104.36217216 101.60218281 107.61137729 104.55952856 110.9375 107.4375 C115.07385652 111.02119093 119.07877218 114.74320192 123.08178711 118.47436523 C123.60135986 118.95719971 124.12093262 119.44003418 124.65625 119.9375 C125.1548201 120.42248962 125.6533902 120.90747925 126.16706848 121.40716553 C127.93978832 123.05944491 127.93978832 123.05944491 130.04412842 124.13117981 C133.23960806 126.12878266 135.53067035 128.08123152 136.4574585 131.87023544 C137.21766256 137.84672589 137.01752055 143.87591556 136.921875 149.88671875 C136.91709749 151.86903909 136.91529733 153.85136862 136.9163208 155.83369446 C136.910069 159.99265182 136.87701288 164.15022836 136.82324219 168.30883789 C136.75585773 173.58136941 136.73996935 178.85236597 136.74302292 184.12527752 C136.74192179 188.2258156 136.7197625 192.32603259 136.69101715 196.42646217 C136.67847239 198.36645904 136.67044936 200.30649162 136.66744232 202.24652672 C136.55746839 236.16012135 126.06492886 266.99634067 104 293 C103.26136719 293.88558594 102.52273438 294.77117187 101.76171875 295.68359375 C86.61148453 313.16463324 65.84266675 325.82817717 44.0625 333.3125 C43.40886475 333.54267822 42.75522949 333.77285645 42.08178711 334.01000977 C23.57737559 340.02951713 4.36814826 339.6215878 -14.8515625 339.78515625 C-16.43278435 339.7999653 -18.01400561 339.81483746 -19.59522629 339.82977104 C-26.175425 339.8896583 -32.75560044 339.94161227 -39.33600807 339.97176456 C-48.6908806 340.01484897 -58.04245049 340.10592614 -67.39611113 340.26393038 C-74.02084285 340.37194622 -80.64469969 340.42540798 -87.27028978 340.43924993 C-91.20842416 340.44883582 -95.14308276 340.48098378 -99.08024979 340.57191658 C-126.04287034 341.16483323 -126.04287034 341.16483323 -134.36429405 334.06828213 C-136.70374413 331.7052661 -138.7983569 329.25549762 -140.78030014 326.58700371 C-142.35647747 324.5361719 -144.18129189 322.9345473 -146.1875 321.3125 C-149.47604802 318.48049661 -152.68126606 315.56295547 -155.875 312.625 C-161.2162937 307.71201364 -166.59706802 302.84520997 -172 298 C-177.40293572 293.15478668 -182.78347071 288.28773296 -188.125 283.375 C-195.86847154 276.25393977 -195.86847154 276.25393977 -203.89868164 269.46118164 C-209.01035738 265.22930579 -212.59954392 260.73990522 -216.1875 255.1875 C-217.30124493 253.51159637 -218.41719427 251.83715597 -219.53515625 250.1640625 C-220.10121582 249.31360352 -220.66727539 248.46314453 -221.25048828 247.58691406 C-224.11812623 243.34668357 -227.11606652 239.2031365 -230.125 235.0625 C-230.66922607 234.31186279 -231.21345215 233.56122559 -231.77416992 232.7878418 C-232.28439697 232.08570557 -232.79462402 231.38356934 -233.3203125 230.66015625 C-233.78856445 230.01191895 -234.25681641 229.36368164 -234.73925781 228.69580078 C-235.74901579 227.33759418 -236.82899952 226.03171513 -237.9296875 224.74609375 C-239 223 -239 223 -238.80284119 221.02032471 C-238 219 -238 219 -236.36842346 217.85150146 C-235.66104538 217.54698059 -234.9536673 217.24245972 -234.22485352 216.92871094 C-233.42213516 216.57444031 -232.61941681 216.22016968 -231.79237366 215.85516357 C-230.91342941 215.48530334 -230.03448517 215.11544312 -229.12890625 214.734375 C-228.21858139 214.33728333 -227.30825653 213.94019165 -226.37034607 213.53106689 C-223.44026768 212.25662709 -220.50180508 211.0029923 -217.5625 209.75 C-215.6471871 208.92195789 -213.73246627 208.09254487 -211.81835938 207.26171875 C-208.97781469 206.02934112 -206.13619894 204.79999698 -203.28970337 203.5814209 C-198.76219952 201.64259898 -194.25554949 199.67386627 -189.78466797 197.60742188 C-188.96916977 197.23321106 -188.15367157 196.85900024 -187.3134613 196.47344971 C-185.7976885 195.77460615 -184.28597807 195.06685049 -182.7794342 194.34832764 C-177.92349649 192.11823452 -173.96056312 191.01663275 -168.7890625 192.734375 C-168.07492188 193.06953125 -167.36078125 193.4046875 -166.625 193.75 C-162.15452158 195.64758978 -157.69729122 197.00074611 -153 198.1875 C-151.081875 198.67283203 -151.081875 198.67283203 -149.125 199.16796875 C-129.83073114 203.37465629 -107.11765883 202.7410038 -88 198 C-87.03191406 197.7834375 -86.06382812 197.566875 -85.06640625 197.34375 C-60.30863375 191.30702173 -38.44222655 177.3366997 -21 159 C-20.35804688 158.34128906 -19.71609375 157.68257812 -19.0546875 157.00390625 C-5.12195453 142.22161639 3.65913132 124.88428613 9.875 105.6875 C10.30462036 104.36383423 10.30462036 104.36383423 10.74291992 103.01342773 C14.53976829 90.72762575 15.410326 78.7135671 15.375 65.9375 C15.37368576 64.77589355 15.37368576 64.77589355 15.37234497 63.59082031 C15.29544571 42.97649572 11.23617857 24.06376436 1.78125 5.57421875 C0 2 0 2 0 0 Z " fill="#47307B" transform="translate(376,173)"/>
<path d="M0 0 C0.54914063 0.37705078 1.09828125 0.75410156 1.6640625 1.14257812 C27.6300527 19.32492434 45.71140404 45.86437091 55 76 C55.22445801 76.70012207 55.44891602 77.40024414 55.68017578 78.12158203 C59.1633562 89.4532795 59.38559714 100.92739611 59.4375 112.6875 C59.44703201 113.79279053 59.44703201 113.79279053 59.45675659 114.92041016 C59.53598408 129.70734578 57.39278102 143.46280405 52.375 157.4375 C51.85341309 158.90135132 51.85341309 158.90135132 51.32128906 160.39477539 C43.1939097 182.52031505 29.43724056 203.10838262 11 218 C10.13890625 218.69867188 9.2778125 219.39734375 8.390625 220.1171875 C-22.83741577 244.50881935 -61.26382535 252.79696318 -100.3125 248.3125 C-108.68744242 246.92993825 -118.61728428 244.94507182 -126.11328125 240.84375 C-129.40345157 239.37236948 -132.52244709 239.51175298 -135.93748474 240.64022827 C-138.18637692 241.57907257 -140.39191154 242.58490218 -142.59765625 243.62109375 C-143.83313957 244.18469856 -143.83313957 244.18469856 -145.09358215 244.75968933 C-146.84904538 245.56195061 -148.60220415 246.3692705 -150.35321045 247.18121338 C-153.97090291 248.85872276 -157.59947811 250.5120094 -161.2276001 252.16680908 C-163.0151034 252.9825179 -164.80201436 253.79952602 -166.58831787 254.61785889 C-173.31738986 257.69967738 -180.07134163 260.71075074 -186.875 263.625 C-187.70394775 263.98392334 -188.53289551 264.34284668 -189.38696289 264.71264648 C-194.74877309 267 -194.74877309 267 -197 267 C-196.26724968 260.7249342 -195.28855605 254.51552402 -194.22265625 248.2890625 C-194.05124619 247.2808847 -193.87983612 246.27270691 -193.70323181 245.23397827 C-193.34182646 243.11091816 -192.97955223 240.9880058 -192.61645508 238.86523438 C-192.06546314 235.64233223 -191.51788061 232.41886419 -190.97070312 229.1953125 C-190.61739168 227.12236102 -190.26388251 225.04944323 -189.91015625 222.9765625 C-189.74862564 222.02520416 -189.58709503 221.07384583 -189.42066956 220.09365845 C-188.50397344 214.74739788 -187.50788626 209.42618021 -186.41001892 204.11402893 C-185.49009821 199.37098196 -185.42987111 196.97786452 -187.90625 192.73046875 C-188.76171818 191.54285984 -189.62690024 190.36220743 -190.5 189.1875 C-211.24985198 159.59278396 -217.65207173 121.98192803 -211.47875977 86.60424805 C-204.46063619 51.39775583 -182.64109227 19.28604649 -152.95751953 -0.71826172 C-106.91179304 -30.86793297 -45.74483075 -31.47629126 0 0 Z " fill="#FEFEFE" transform="translate(333,126)"/>
<path d="M0 0 C5.02931667 0.5536147 8.05600397 2.11850397 11.625 5.6875 C12.75 7.8125 12.75 7.8125 12.8125 10.0625 C11.19558431 14.24745825 8.60038304 17.37881073 5.75 20.8125 C5.09773437 21.60011719 4.44546875 22.38773438 3.7734375 23.19921875 C-14.17244154 43.98380957 -42.29806099 59.32493665 -69.88134766 61.66748047 C-85.48125737 62.62257698 -101.03853073 62.63756304 -116.25 58.8125 C-116.98992187 58.63557617 -117.72984375 58.45865234 -118.4921875 58.27636719 C-134.55464614 54.36215694 -134.55464614 54.36215694 -140.25 47.8125 C-141.69866707 43.46649879 -141.75455583 39.35350246 -141.25 34.8125 C-139.8125 32.125 -139.8125 32.125 -137.25 30.8125 C-132.41098026 30.44784882 -128.2087992 31.71917772 -123.8125 33.625 C-102.71875519 42.36337987 -75.76653741 43.64997177 -54.25 35.8125 C-53.62673828 35.59819336 -53.00347656 35.38388672 -52.36132812 35.16308594 C-35.02292023 29.16535874 -21.09800877 19.35555649 -9.625 5.125 C-6.54349274 1.59527351 -4.74347811 0.15391817 0 0 Z " fill="#675BA3" transform="translate(329.25,229.1875)"/>
<path d="M0 0 C4.87929246 1.68898585 8.50059555 4.43759505 11 9 C12.52582721 13.79038774 12.46760422 17.72585321 10.375 22.3125 C8.06143126 26.34517884 5.16540155 28.91729923 1 31 C-3.9252115 31.54035594 -7.86941718 31.54435469 -12.375 29.375 C-17.29588696 24.92276894 -19.69733245 20.84308387 -20.1640625 14.2421875 C-19.79395012 9.18398494 -17.07801409 5.97534608 -13.375 2.625 C-8.8910622 -0.44295744 -5.33906361 -0.48700918 0 0 Z " fill="#685CA3" transform="translate(218,193)"/>
<path d="M0 0 C4.74440278 2.48359171 9.05953724 5.90628526 11 11 C11.71440243 17.22550686 10.78328894 21.91057559 7 27 C2.14139503 30.96620814 -2.09846951 31.74665033 -8.33984375 31.5234375 C-12.65146213 30.67504269 -15.32236462 28.40364148 -18 25 C-20.90954533 20.31729741 -20.61195506 15.33717765 -20 10 C-17.97924679 5.55434293 -15.38954333 2.92453467 -10.984375 0.703125 C-7.22248925 -0.62982664 -3.89858245 -0.88938502 0 0 Z " fill="#675CA3" transform="translate(285,177)"/>
</svg>
